<?xml version="1.0" encoding="UTF-8"?>
<svg version="1.1" xmlns="http://www.w3.org/2000/svg" width="939" height="915">
<path d="M0 0 C1.59521484 -0.05607422 1.59521484 -0.05607422 3.22265625 -0.11328125 C11.87388602 0.87828978 19.35953937 5.46227898 26.75 9.8125 C28.58842217 10.87911224 30.42696753 11.94551217 32.265625 13.01171875 C33.19955078 13.55618652 34.13347656 14.1006543 35.09570312 14.66162109 C39.71418495 17.34462574 44.35849231 19.98210541 49 22.625 C54.43157649 25.72501393 59.85530133 28.83608213 65.25 32 C70.2650118 34.93837311 75.32507245 37.79035968 80.39501953 40.63232422 C88.7067644 45.29614741 96.97386082 50.0378256 105.24511719 54.77294922 C107.86229429 56.26949608 110.48152669 57.76237083 113.1015625 59.25390625 C122.43522974 64.57070929 131.73355724 69.94180061 141 75.375 C150.08360969 80.69678432 159.25193465 85.83520999 168.4921875 90.87890625 C176.49642435 95.2496186 184.38617311 99.81480194 192.25390625 104.42578125 C203.89848838 111.24728376 215.58542866 117.97267144 227.38793945 124.51806641 C232.80285621 127.52710089 238.14946751 130.61800458 243.44921875 133.82519531 C247.8350319 136.4466998 252.29545038 138.93523871 256.75 141.4375 C258.76439318 142.57539646 260.77871437 143.71342036 262.79296875 144.8515625 C266.83044288 147.12957219 270.87549098 149.39330638 274.92578125 151.6484375 C276.80478438 152.70295238 278.68369453 153.75763299 280.5625 154.8125 C281.43237549 155.29219238 282.30225098 155.77188477 283.19848633 156.26611328 C287.76379457 158.84011715 291.41351291 161.35214678 294.9375 165.3125 C295.824375 166.281875 296.71125 167.25125 297.625 168.25 C302.59750435 174.83520847 303.57053113 183.46449815 302.69140625 191.5859375 C300.64389381 200.75444455 296.47701995 206.86111121 288.9375 212.3125 C283.77609374 215.30695119 278.4654217 217.96727685 273.125 220.625 C271.62777243 221.38112871 270.13119411 222.13854432 268.63525391 222.8972168 C265.70773536 224.38113986 262.77795366 225.86041794 259.84619141 227.3359375 C255.13872607 229.71006133 250.46898626 232.15255233 245.8125 234.625 C244.35692149 235.39481618 242.9011926 236.16434809 241.4453125 236.93359375 C240.3629834 237.5056958 240.3629834 237.5056958 239.25878906 238.08935547 C234.74225728 240.4692276 230.21431264 242.82726043 225.6875 245.1875 C224.24322632 245.94111816 224.24322632 245.94111816 222.76977539 246.70996094 C217.87191507 249.2647985 212.97137387 251.81430156 208.06640625 254.35546875 C198.81729563 259.15382713 189.61072778 264.00557175 180.5 269.0625 C174.27136731 272.51701039 168.00839556 275.84021644 161.62036133 278.98901367 C154.76945942 282.37321421 147.97559382 285.86699417 141.1875 289.375 C140.56985779 289.69409332 139.95221558 290.01318665 139.31585693 290.34194946 C129.26898915 295.53800435 119.28811946 300.85084213 109.33111572 306.21673584 C102.19171234 310.06295939 95.03075052 313.82432921 87.74682617 317.38842773 C81.07896083 320.67928175 74.59339654 324.30105415 68.07983398 327.88476562 C62.01870062 331.20835817 55.9105765 334.38971548 49.7097168 337.44311523 C42.71472449 340.89354781 35.83571707 344.5551999 28.95947266 348.23535156 C26.98178447 349.28890871 24.99786133 350.32967281 23.01171875 351.3671875 C21.82026186 351.99469553 20.62885281 352.62229439 19.4375 353.25 C17.87515625 354.06791016 17.87515625 354.06791016 16.28125 354.90234375 C13.82204132 356.09688239 13.82204132 356.09688239 12.9375 358.3125 C12.83143791 360.93929135 12.79737274 363.53290572 12.8125 366.16015625 C12.81515869 367.02310806 12.81781738 367.88605988 12.82055664 368.77516174 C12.92875502 384.91854842 13.52968818 401.06063832 14.01037598 417.19628906 C14.17695456 422.79612925 14.34074067 428.39604037 14.5 433.99609375 C14.53321854 435.16016817 14.53321854 435.16016817 14.56710815 436.34775925 C14.83180136 445.75080019 14.99136064 455.14114117 14.91917419 464.54833984 C14.88118156 472.78907173 15.19186422 481.01466412 15.48033333 489.24938965 C15.94572657 502.621742 16.16504924 515.99159946 16.32592773 529.37094116 C16.6713561 557.91838681 17.26055952 586.4586738 17.9375 615 C17.95859203 615.89171528 17.97968407 616.78343056 18.00141525 617.70216751 C18.14537376 623.78455189 18.2908394 629.86689894 18.4375 635.94921875 C18.46787951 637.21030425 18.46787951 637.21030425 18.49887276 638.49686623 C18.70724395 647.12493477 18.9207738 655.75282269 19.15066528 664.38034725 C19.24563984 667.94778234 19.33886665 671.51526249 19.43212891 675.08274269 C19.49705963 677.53354723 19.56485865 679.98426007 19.6328125 682.4349823 C19.85368772 690.65170005 20.00328232 698.86910434 20.0625 707.08862305 C20.0796682 708.33280235 20.0796682 708.33280235 20.09718323 709.60211658 C20.12998936 719.03086943 17.66061059 726.67547343 11.05859375 733.58984375 C4.86741994 738.61803463 -3.227224 741.78308677 -11.2421875 741.13671875 C-12.79135789 740.96198068 -14.33846438 740.76788034 -15.8828125 740.5546875 C-18.2574676 740.23001125 -18.2574676 740.23001125 -21.4375 740.5 C-31.63758123 739.97240959 -41.46274898 733.83804428 -50.48007202 729.37350464 C-54.35561293 727.4552992 -58.24013099 725.55547602 -62.125 723.65625 C-62.89386032 723.28008041 -63.66272064 722.90391083 -64.45487976 722.51634216 C-71.00590161 719.32030854 -77.60888607 716.25488362 -84.25 713.25 C-91.2351268 710.08590179 -98.15041945 706.83825689 -104.98779297 703.36669922 C-117.1088894 697.2237263 -129.43942397 691.491425 -141.72827148 685.69360352 C-147.78778218 682.83389963 -153.82899468 679.95427329 -159.8125 676.9375 C-173.70385171 669.93509167 -187.81378064 663.36477332 -201.87792969 656.71826172 C-206.04815076 654.74604763 -210.21296019 652.76321129 -214.37109375 650.765625 C-226.15867126 645.10398916 -237.98365017 639.53293008 -249.86889648 634.07910156 C-256.54811255 630.99948953 -263.15000217 627.79655513 -269.71820068 624.48928833 C-274.9715414 621.84731986 -280.2504861 619.26180863 -285.54296875 616.69921875 C-286.3395842 616.31320999 -287.13619965 615.92720123 -287.95695496 615.52949524 C-291.22251627 613.94789179 -294.48871752 612.36762565 -297.75610352 610.78979492 C-300.1860573 609.61582038 -302.61460122 608.43897016 -305.04296875 607.26171875 C-305.77629929 606.90857101 -306.50962982 606.55542328 -307.2651825 606.1915741 C-313.42051527 603.20370795 -318.24031156 600.24950245 -323.0625 595.3125 C-324.22655595 594.3925203 -325.39337881 593.47603409 -326.5625 592.5625 C-334.42208373 585.79880594 -336.18414783 577.28482977 -337.0625 567.3125 C-337.40311265 561.3173712 -337.45552008 555.31232927 -337.52636719 549.30911255 C-337.5903054 544.00650681 -337.68624201 538.70447006 -337.78125 533.40234375 C-337.80106934 532.2727977 -337.82088867 531.14325165 -337.84130859 529.97947693 C-338.09623081 516.27315515 -338.58653622 502.57507338 -339.0625 488.875 C-339.77425892 468.18415697 -340.3607554 447.49717591 -340.72070312 426.79711914 C-340.98719312 411.62928883 -341.40581685 396.46691908 -341.83704376 381.30309772 C-342.1180867 371.39709992 -342.38702953 361.49077478 -342.65582657 351.58443832 C-342.74689578 348.22825533 -342.83814691 344.87207731 -342.92941284 341.51589966 C-343.25364851 329.58188518 -343.5750596 317.64779864 -343.89331055 305.71362305 C-343.99225654 302.00682541 -344.09123884 298.30002874 -344.19025993 294.59323311 C-344.25607407 292.12946242 -344.32184588 289.6656906 -344.38757515 287.20191765 C-344.77371366 272.74663063 -345.1744739 258.29193895 -345.60453796 243.83789062 C-345.79449388 237.45160952 -345.97717729 231.06512792 -346.15755939 224.67856979 C-346.2981047 219.72443249 -346.4484379 214.77072536 -346.60641098 209.81711483 C-346.70038347 206.79353333 -346.78464822 203.76973894 -346.86615372 200.74579811 C-346.9230625 198.74033982 -346.99161975 196.73522216 -347.0607605 194.73014832 C-347.38489956 181.95841889 -346.49301617 169.76553641 -337.8515625 159.75 C-331.26831686 153.2656019 -323.99104402 149.34759259 -315.71484375 145.546875 C-312.62506993 144.1089243 -309.56272589 142.61969405 -306.5 141.125 C-291.53876085 133.82800072 -276.48232754 126.75951435 -261.35009766 119.82324219 C-255.62138606 117.19074053 -249.90481158 114.53214626 -244.1875 111.875 C-242.45415405 111.0701416 -242.45415405 111.0701416 -240.68579102 110.24902344 C-235.30464044 107.75005794 -229.92451256 105.24892965 -224.54696655 102.74221802 C-202.49647515 92.46459196 -202.49647515 92.46459196 -192.3125 88 C-186.98355406 85.66191147 -181.74857514 83.20219891 -176.5625 80.5625 C-169.96932551 77.20825131 -163.28834781 74.07893902 -156.5625 71 C-144.92628378 65.67183783 -133.36493001 60.19461651 -121.8125 54.6875 C-108.65046132 48.41521758 -95.45951618 42.23454029 -82.16015625 36.2578125 C-72.9263552 32.09658372 -63.80630632 27.70847269 -54.6940918 23.28955078 C-54.06610687 22.98502991 -53.43812195 22.68050903 -52.79110718 22.36676025 C-51.51645566 21.74858868 -50.24189874 21.130222 -48.96743774 20.51165771 C-40.15174541 16.23629379 -31.29729512 12.07090831 -22.31567383 8.15283203 C-18.8418773 6.62603162 -15.49356176 5.04067715 -12.2109375 3.1328125 C-7.93927741 0.66309339 -4.87181686 0.1103272 0 0 Z M-11.5 65.3125 C-12.83768433 65.93934692 -12.83768433 65.93934692 -14.20239258 66.57885742 C-16.00320405 67.42421546 -17.80103917 68.27594555 -19.59570312 69.13427734 C-21.66615032 70.12319046 -23.74245737 71.09456344 -25.828125 72.05078125 C-32.48659511 75.11398154 -39.09094008 78.28538698 -45.69335938 81.46704102 C-57.51604118 87.16337458 -69.3932074 92.72459499 -81.31640625 98.20703125 C-88.28239821 101.41047431 -95.23835719 104.63517898 -102.1875 107.875 C-102.7961087 108.15872467 -103.40471741 108.44244934 -104.0317688 108.73477173 C-116.31423927 114.46514721 -128.55211518 120.2887123 -140.78991699 126.1137085 C-152.41625162 131.64652525 -164.0630195 137.1287313 -175.75048828 142.53149414 C-184.14191027 146.41272643 -192.51159111 150.33839428 -200.87432861 154.28091431 C-242.66855108 173.98427128 -242.66855108 173.98427128 -260.07910156 181.62768555 C-266.86092084 184.62435961 -273.46275047 187.93568515 -280.0625 191.3125 C-281.09890625 191.81136719 -282.1353125 192.31023437 -283.203125 192.82421875 C-288.02363673 195.19139435 -288.02363673 195.19139435 -290.9609375 199.44140625 C-292.03472998 204.92478918 -291.98100804 209.07277958 -290.65771484 214.48486328 C-287.90472641 227.56325214 -288.80452696 241.74718327 -288.61694336 255.04119873 C-288.52447929 261.55234859 -288.4183624 268.06327503 -288.3125 274.57421875 C-288.29183472 275.85713806 -288.27116943 277.14005737 -288.24987793 278.46185303 C-288.02252989 292.2738023 -287.66194776 306.080326 -287.25 319.88781738 C-287.09104852 325.23349215 -286.94950872 330.57950319 -286.8125 335.92578125 C-286.74947795 338.34239244 -286.68619466 340.75899663 -286.62280273 343.17559814 C-286.5837331 344.68155852 -286.54543539 346.18753919 -286.50805664 347.69354248 C-286.31666844 355.36781255 -286.0360977 363.02134361 -285.5625 370.68359375 C-284.90395178 381.62766889 -284.77972841 392.58113804 -284.61694336 403.54174805 C-284.52369891 409.78578093 -284.41823994 416.0296055 -284.3125 422.2734375 C-284.29183472 423.50161194 -284.27116943 424.72978638 -284.24987793 425.99517822 C-284.084187 435.6031447 -283.85296105 445.20757155 -283.5625 454.8125 C-283.16956157 467.81381179 -282.87965167 480.81520963 -282.625 493.81997681 C-282.23051776 514.4762447 -282.23051776 514.4762447 -281.5625 535.125 C-281.52705078 536.04047607 -281.49160156 536.95595215 -281.45507812 537.89916992 C-281.38296487 539.55603517 -281.28619874 541.21208543 -281.16015625 542.86572266 C-281.0625 545.3125 -281.0625 545.3125 -281.37109375 548.09912109 C-281.55579661 551.38604357 -281.45178265 553.30956443 -280.0625 556.3125 C-275.79628686 559.39319012 -271.23356293 561.32830774 -266.38574219 563.32757568 C-262.59277659 564.93558025 -258.93349661 566.80284637 -255.25 568.64453125 C-253.74008957 569.38419117 -252.22925276 570.12196281 -250.7175293 570.85791016 C-249.95693207 571.2284552 -249.19633484 571.59900024 -248.41268921 571.98077393 C-247.24934555 572.54716583 -247.24934555 572.54716583 -246.0625 573.125 C-245.25978668 573.51612976 -244.45707336 573.90725952 -243.6300354 574.3102417 C-232.75866388 579.60306567 -221.84538554 584.77064309 -210.83081055 589.75976562 C-205.00405345 592.40386611 -199.25431425 595.15472763 -193.54980469 598.05200195 C-186.74402249 601.50045981 -179.87251044 604.81222582 -173 608.125 C-172.05442734 608.58092026 -172.05442734 608.58092026 -171.0897522 609.04605103 C-162.00656406 613.42424712 -152.91424714 617.78326595 -143.81298828 622.1237793 C-138.49800282 624.66083485 -133.19212884 627.21590761 -127.89453125 629.7890625 C-125.38822423 631.00562789 -122.88169565 632.22173558 -120.375 633.4375 C-119.44608948 633.88819351 -119.44608948 633.88819351 -118.49841309 634.34799194 C-110.03397999 638.45026594 -101.51393966 642.39153279 -92.90698242 646.18530273 C-86.80862184 648.90283569 -80.9433674 651.96102604 -75.07788086 655.14526367 C-69.66973714 658.05813055 -64.1846959 660.488493 -58.5 662.82421875 C-53.50415181 664.98719393 -48.72742196 667.52860618 -43.92578125 670.08984375 C-41.0700668 671.68356572 -41.0700668 671.68356572 -38.0625 670.3125 C-37.92435378 638.75551148 -38.2667167 607.22732529 -38.93133545 575.67755127 C-39.02356936 571.24138704 -39.11088715 566.80513151 -39.19818687 562.36886787 C-39.74052992 534.60065344 -39.74052992 534.60065344 -40.56640625 506.83984375 C-41.02923477 493.63493616 -41.3081087 480.42908136 -41.5625 467.21875 C-41.593446 465.61591313 -41.593446 465.61591313 -41.62501717 463.98069572 C-41.81673499 454.01032131 -42.00268054 444.03984027 -42.1875 434.06933594 C-42.29003602 428.54810505 -42.3953643 423.0269324 -42.50219727 417.50578308 C-42.56027396 414.46047466 -42.6151677 411.41512062 -42.66992188 408.36975098 C-42.73888327 404.58367089 -42.82885656 400.79892602 -42.93334961 397.01367188 C-43.04163508 392.99937794 -43.05853222 388.99412103 -43.03735352 384.97851562 C-43.05661108 382.9029868 -43.07668768 380.82746537 -43.09765625 378.75195312 C-43.06647705 377.31584057 -43.06647705 377.31584057 -43.03466797 375.85071564 C-43.11926621 370.64912582 -43.11926621 370.64912582 -45.80346584 366.36554432 C-49.16892223 363.75064802 -52.69660659 361.62114949 -56.69140625 360.10546875 C-60.17455012 358.70168094 -63.26920007 357.10109817 -66.4375 355.0625 C-69.63318939 353.12813292 -72.87368534 351.30649982 -76.16015625 349.53125 C-81.85191944 346.4385608 -87.4923413 343.26125186 -93.125 340.0625 C-100.27474225 336.01061253 -107.4349569 331.97995095 -114.625 328 C-120.83018732 324.56345839 -127.00268605 321.07529469 -133.15625 317.546875 C-145.41500606 310.52524574 -157.72575919 303.59593009 -170.08935547 296.76074219 C-181.0176775 290.71848311 -191.86229843 284.5593573 -202.62988281 278.23510742 C-208.46459906 274.81269081 -214.3267089 271.45417652 -220.25 268.1875 C-226.89825328 264.5195767 -233.52336635 260.81381059 -240.125 257.0625 C-240.98182373 256.57894043 -241.83864746 256.09538086 -242.72143555 255.59716797 C-261.28544196 245.01867412 -261.28544196 245.01867412 -264.8125 234.4375 C-266.91693085 226.70198222 -266.83146522 219.54130395 -263.0625 212.3125 C-257.98627874 205.34156142 -253.19170567 200.38165467 -244.46484375 198.859375 C-236.00120009 197.78832243 -230.35938235 198.9398821 -222.94921875 203.05859375 C-221.97645996 203.59605225 -221.00370117 204.13351074 -220.00146484 204.68725586 C-219.03160645 205.22358643 -218.06174805 205.75991699 -217.0625 206.3125 C-215.38275063 207.2210467 -213.70180614 208.12738816 -212.01953125 209.03125 C-197.17092114 217.04640182 -182.60618201 225.50802143 -168.07128906 234.07568359 C-161.46834937 237.95132211 -154.80346053 241.68284651 -148.0625 245.3125 C-136.61475368 251.50410757 -125.20990747 257.74007804 -113.97119141 264.30517578 C-108.66493897 267.40058266 -103.31801511 270.41075889 -97.9375 273.375 C-92.31790178 276.47263514 -86.76030119 279.64966431 -81.25 282.9375 C-72.18542037 288.34125705 -62.92244566 293.38696197 -53.65307617 298.42822266 C-52.46115774 299.07926212 -51.26950467 299.73078764 -50.078125 300.3828125 C-49.49541336 300.70045563 -48.91270172 301.01809875 -48.31233215 301.34536743 C-45.3074576 303.00229089 -42.37425985 304.72473884 -39.49023438 306.58496094 C-38.91142517 306.9561203 -38.33261597 307.32727966 -37.73626709 307.70968628 C-36.1463003 308.74024371 -34.56831198 309.78921484 -32.99121094 310.83935547 C-29.63692156 312.52656638 -27.76868829 312.76872213 -24.0625 312.3125 C-21.52621636 311.4160113 -21.52621636 311.4160113 -19.11328125 310.0390625 C-18.19321289 309.54937988 -17.27314453 309.05969727 -16.32519531 308.55517578 C-15.35163086 308.02134277 -14.37806641 307.48750977 -13.375 306.9375 C-12.35116211 306.3894873 -11.32732422 305.84147461 -10.27246094 305.27685547 C-8.18053434 304.15680716 -6.09115856 303.03198129 -4.00439453 301.90234375 C0.04281117 299.71517333 4.11392382 297.57500838 8.1875 295.4375 C8.93483398 295.04312744 9.68216797 294.64875488 10.45214844 294.24243164 C15.09575762 291.79367599 19.75232301 289.37136331 24.41796875 286.96484375 C35.71813705 281.13518235 46.96710887 275.25107399 58.08056641 269.07226562 C63.54320587 266.04680377 69.06513581 263.18973694 74.66650391 260.43115234 C83.50157944 256.07152442 92.20581807 251.45794923 100.93212891 246.88574219 C104.87867868 244.81981475 108.82911229 242.76137845 112.77954102 240.70288086 C121.30353041 236.26090267 129.81659518 231.79925084 138.31567383 227.30981445 C143.15172771 224.7615378 148.00258328 222.24309821 152.86328125 219.7421875 C155.36729987 218.45334314 157.87123698 217.16434084 160.375 215.875 C161.00048737 215.55291565 161.62597473 215.2308313 162.27041626 214.89898682 C170.97182332 210.41368483 179.59517711 205.80849892 188.14477539 201.0390625 C193.92486058 197.82756615 199.78209701 194.81291937 205.74145508 191.94750977 C209.7270639 190.010784 213.31051008 187.83586455 216.9375 185.3125 C214.15034578 182.29665205 211.52383934 180.35067429 207.8828125 178.46875 C202.09304281 175.40797742 196.45386929 172.13708225 190.8125 168.8125 C177.48380588 160.99656215 164.00268738 153.46302549 150.49804688 145.95654297 C142.51766302 141.51775991 134.67187607 136.95502883 126.91796875 132.12890625 C123.4184761 129.99618793 119.84524343 128.04916592 116.234375 126.11328125 C111.85065198 123.71885434 107.52065732 121.23449189 103.1875 118.75 C95.61838328 114.41200085 88.03574386 110.09928193 80.4375 105.8125 C68.71718747 99.19730597 57.03286989 92.52016643 45.35351562 85.83300781 C41.03095648 83.3585466 36.7067129 80.88714802 32.37890625 78.421875 C28.48048204 76.19993806 24.59564825 73.95568283 20.71484375 71.703125 C18.64333695 70.51022947 16.57172473 69.31751701 14.5 68.125 C13.53465332 67.55982666 12.56930664 66.99465332 11.57470703 66.41235352 C2.32866662 61.11498942 -1.94997087 60.67526559 -11.5 65.3125 Z " fill="#01FDF3" transform="translate(490.0625,99.6875)"/>
<path d="M0 0 C3.78997812 2.33300356 6.16490885 4.14018373 7.79296875 8.30078125 C9.09372966 16.52326163 9.12454728 24.94636697 9.3984375 33.25 C9.42208185 33.94920877 9.4457262 34.64841755 9.47008705 35.36881447 C9.59475465 39.05964476 9.71546757 42.75057873 9.83276367 46.44165039 C9.95405858 50.23453921 10.08887714 54.02682285 10.22674084 57.81914043 C10.33111289 60.75726574 10.42553696 63.69565163 10.51729774 66.63419533 C10.56265923 68.03245272 10.61169486 69.43059628 10.66460228 70.82858849 C11.27920517 87.2769802 11.27920517 87.2769802 6.48046875 93.11328125 C2.33860473 96.48456591 -0.4027777 97.52705632 -5.70703125 97.17578125 C-9.90394038 96.56227958 -12.30969785 95.5389774 -15.20703125 92.30078125 C-18.26783908 86.53066602 -18.67305493 81.67871694 -18.71875 75.2109375 C-18.7367012 74.2664122 -18.7546524 73.3218869 -18.77314758 72.34873962 C-18.82701281 69.35363125 -18.86106983 66.35868006 -18.89453125 63.36328125 C-18.92772532 61.32354595 -18.9622169 59.28383133 -18.99804688 57.24414062 C-19.0827256 52.26313468 -19.14964997 47.28217342 -19.20703125 42.30078125 C-23.14164966 41.29737384 -23.14164966 41.29737384 -26.984375 42.49609375 C-28.54865234 43.45128906 -28.54865234 43.45128906 -30.14453125 44.42578125 C-30.73733887 44.78124023 -31.33014648 45.13669922 -31.94091797 45.50292969 C-33.28378035 46.30857959 -34.62308707 47.12017504 -35.95947266 47.93652344 C-38.39763889 49.41647922 -40.85265836 50.86496247 -43.3125 52.30859375 C-56.32067455 59.94413093 -69.25326613 67.70569617 -82.17529297 75.48583984 C-91.11955816 80.87043462 -100.09774704 86.19545477 -109.08886719 91.50146484 C-116.81724577 96.06459621 -124.51811367 100.67158504 -132.20703125 105.30078125 C-142.49017285 111.48898224 -152.78243717 117.65836177 -163.13549805 123.72900391 C-167.57073533 126.331718 -171.98901933 128.96059683 -176.39453125 131.61328125 C-182.56663532 135.32688474 -188.75763675 139.0079223 -194.95703125 142.67578125 C-195.88370605 143.22516357 -196.81038086 143.7745459 -197.76513672 144.34057617 C-202.42173652 147.09404037 -207.0930058 149.8144016 -211.8046875 152.47265625 C-212.68350586 152.97104004 -213.56232422 153.46942383 -214.46777344 153.98291016 C-216.13455587 154.92537899 -217.80563263 155.86030417 -219.48144531 156.78662109 C-220.22233398 157.20637207 -220.96322266 157.62612305 -221.7265625 158.05859375 C-222.37729736 158.42098145 -223.02803223 158.78336914 -223.69848633 159.15673828 C-225.52718899 160.31990021 -225.52718899 160.31990021 -226.20703125 163.30078125 C-226.2988014 164.7143966 -226.33493556 166.13199375 -226.33642578 167.54858398 C-226.33953262 168.43438141 -226.34263947 169.32017883 -226.34584045 170.2328186 C-226.34287209 171.71858902 -226.34287209 171.71858902 -226.33984375 173.234375 C-226.34120834 174.3122226 -226.34257294 175.39007019 -226.34397888 176.50057983 C-226.3460735 180.24650744 -226.33947311 183.99236096 -226.33203125 187.73828125 C-226.33064467 189.07660914 -226.32941619 190.41493721 -226.32833862 191.75326538 C-226.29969916 222.49394656 -226.05451572 253.23415648 -225.81675649 283.97380108 C-225.78036662 288.6818177 -225.74511685 293.3898416 -225.71026611 298.09786987 C-225.50608619 325.37981893 -225.23964632 352.65928184 -224.734375 379.9375 C-224.71568422 381.00759623 -224.69699345 382.07769245 -224.67773628 383.18021584 C-224.62411761 386.19405991 -224.56487845 389.20773731 -224.50366211 392.22143555 C-224.48873404 393.08575132 -224.47380596 393.9500671 -224.45842552 394.84057426 C-224.32239391 401.02593897 -223.83186259 407.14640094 -223.20703125 413.30078125 C-218.58267366 411.9011306 -214.42301234 409.98646255 -210.18359375 407.703125 C-209.52465118 407.35273163 -208.86570862 407.00233826 -208.1867981 406.6413269 C-206.06598116 405.51170337 -203.94893527 404.37521801 -201.83203125 403.23828125 C-200.37414062 402.45966011 -198.91613252 401.68125888 -197.45800781 400.90307617 C-189.6257497 396.71516789 -181.82988374 392.47276518 -174.12011719 388.0625 C-169.54619953 385.45472272 -164.86957971 383.11541606 -160.14453125 380.796875 C-156.47893031 378.92995324 -152.93706411 376.8772963 -149.37988281 374.81298828 C-139.90370351 369.3525218 -130.21020809 364.27770527 -120.57324219 359.10888672 C-115.36152517 356.30949767 -110.15845185 353.49424522 -104.95703125 350.67578125 C-103.47710693 349.87394409 -103.47710693 349.87394409 -101.96728516 349.0559082 C-94.47643633 344.99450796 -86.99446112 340.91696525 -79.51708984 336.83081055 C-74.65743343 334.17670399 -69.79185345 331.53414957 -64.91796875 328.90625 C-55.80359554 323.99038946 -46.71157817 319.08644581 -37.8125 313.7890625 C-33.92740942 311.56984284 -29.92408442 309.6099934 -25.8984375 307.66015625 C-23.1599614 306.32367731 -23.1599614 306.32367731 -20.484375 304.62890625 C-18.20703125 303.30078125 -18.20703125 303.30078125 -16.20703125 303.30078125 C-15.36937231 298.96097067 -15.10322302 294.90496394 -15.15698242 290.48852539 C-15.16640114 289.50921303 -15.16640114 289.50921303 -15.17601013 288.51011658 C-15.18978389 287.10240086 -15.20570109 285.69470478 -15.22356224 284.28703499 C-15.25038233 282.05410654 -15.2681378 279.82127977 -15.28303528 277.58824158 C-15.32560712 271.24264358 -15.37339908 264.89724689 -15.45385742 258.55200195 C-15.50253493 254.66122041 -15.53141682 250.77071391 -15.5476017 246.87966728 C-15.55745954 245.4033178 -15.57460913 243.9269973 -15.59938622 242.45082283 C-15.83452939 228.12616079 -15.83452939 228.12616079 -11.20703125 222.30078125 C-7.55364898 219.06492838 -4.12482974 218.82796985 0.58203125 219.0234375 C3.94285205 219.44502456 6.04195012 220.31748875 8.79296875 222.30078125 C12.47325322 227.62522938 13.37864228 231.40950598 13.31054688 237.80297852 C13.32106079 239.03363541 13.32106079 239.03363541 13.33178711 240.28915405 C13.349292 242.98218329 13.33777258 245.67414889 13.32421875 248.3671875 C13.32691557 250.24853211 13.33079958 252.12987536 13.33581543 254.01121521 C13.34170008 257.94600754 13.33317994 261.88043568 13.31445312 265.81518555 C13.29164845 270.85135367 13.30480277 275.88666975 13.32874298 280.92280674 C13.34321552 284.80480845 13.33858856 288.68660901 13.32823181 292.56861687 C13.32556937 294.42531371 13.32881728 296.282029 13.33815002 298.1387043 C13.34834149 300.73561945 13.33277981 303.33116504 13.31054688 305.92797852 C13.3186438 306.69022232 13.32674072 307.45246613 13.33508301 308.23780823 C13.25346662 313.39946161 12.01621827 316.30530075 8.79296875 320.30078125 C2.05060456 326.532987 -6.87514842 330.40078225 -14.96875 334.578125 C-20.28000422 337.322787 -25.52818239 340.17534538 -30.76953125 343.05078125 C-36.84374484 346.38016875 -42.92582731 349.69294799 -49.03125 352.96484375 C-50.75976196 353.89151855 -50.75976196 353.89151855 -52.52319336 354.83691406 C-54.74816981 356.0284194 -56.97418081 357.21799567 -59.20141602 358.40527344 C-64.88003792 361.44775791 -70.46048688 364.58752427 -75.94360352 367.97094727 C-78.37422519 369.39901287 -80.854833 370.64109802 -83.39453125 371.86328125 C-89.60491074 374.90018092 -95.57982472 378.31099865 -101.58203125 381.73828125 C-107.72504344 385.24320203 -113.84346546 388.71189713 -120.20703125 391.80078125 C-126.33545587 394.78038746 -132.22921528 398.10704956 -138.14453125 401.48828125 C-146.97321432 406.53230975 -155.89980836 411.32792837 -164.93359375 415.99316406 C-171.45144521 419.36561794 -177.89045112 422.85156273 -184.2902832 426.44213867 C-191.58034127 430.52804303 -198.92937967 434.50245784 -206.29101562 438.45776367 C-211.0397989 441.01529873 -215.76219464 443.599381 -220.421875 446.31640625 C-221.22431641 446.77982422 -222.02675781 447.24324219 -222.85351562 447.72070312 C-224.32220698 448.57337049 -225.78392297 449.43823711 -227.23632812 450.31835938 C-232.02376643 453.08412285 -236.61486582 454.54953338 -242.20703125 454.30078125 C-246.61132194 452.14018582 -249.5146599 449.38919701 -252.20703125 445.30078125 C-253.1524934 441.65728108 -253.34133792 438.21529732 -253.36524963 434.46099854 C-253.37993286 432.70794655 -253.37993286 432.70794655 -253.39491272 430.91947937 C-253.40066818 429.64570938 -253.40642365 428.37193939 -253.41235352 427.05957031 C-253.42194049 425.69726775 -253.43195104 424.3349681 -253.44235229 422.97267151 C-253.46936357 419.27568193 -253.49040524 415.5786797 -253.51035428 411.88164616 C-253.53230894 407.99649371 -253.55966702 404.11137922 -253.58641052 400.22625732 C-253.63066399 393.68942957 -253.67143535 387.15258801 -253.7097168 380.61572266 C-253.76338326 371.45217847 -253.82307328 362.28868123 -253.88411248 353.12518358 C-253.97043702 340.11505784 -254.05449523 327.10491343 -254.13110352 314.09472656 C-254.13507869 313.42303145 -254.13905386 312.75133634 -254.1431495 312.05928683 C-254.19475218 303.20147585 -254.22271811 294.3443972 -254.19212341 285.48648071 C-254.21565291 280.458394 -254.45365253 275.44662902 -254.70703125 270.42578125 C-255.08488569 262.12739202 -255.25090168 253.86069531 -255.1953125 245.5546875 C-255.15889288 234.72059951 -255.28713602 223.89608786 -255.48411179 213.0641861 C-255.53134386 210.44009784 -255.57611863 207.81597937 -255.62002563 205.1918335 C-255.63467676 204.31766155 -255.64932789 203.44348961 -255.66442299 202.54282761 C-255.69418864 200.76471383 -255.72392153 198.98659951 -255.75362206 197.20848465 C-255.83041162 192.67242546 -255.91303562 188.13658629 -256.00610352 183.60083008 C-256.09746222 179.12838587 -256.17355591 174.6559082 -256.23948097 170.18301964 C-256.2670315 168.50092259 -256.30009136 166.81890553 -256.3390255 165.13703346 C-256.39245362 162.79943108 -256.4263021 160.46227769 -256.45581055 158.12426758 C-256.47594711 157.44738892 -256.49608368 156.77051025 -256.51683044 156.07312012 C-256.56003583 149.57633801 -255.01199417 144.28183812 -250.64453125 139.48828125 C-248.12308379 137.60629524 -245.89562383 136.88953901 -242.8515625 136.17578125 C-235.70319501 134.11061053 -229.69087005 130.04870875 -223.45703125 126.11328125 C-221.08978692 124.63651295 -218.71878918 123.1658267 -216.34765625 121.6953125 C-215.46421539 121.1452655 -215.46421539 121.1452655 -214.56292725 120.58410645 C-209.89076823 117.68769028 -205.14396175 114.94179365 -200.36035156 112.23448181 C-194.32983135 108.81822811 -188.39136926 105.25569479 -182.45703125 101.67578125 C-180.88888672 100.7321875 -180.88888672 100.7321875 -179.2890625 99.76953125 C-177.23286501 98.5322189 -175.1769482 97.29443997 -173.12133789 96.05615234 C-166.35569575 91.9810106 -159.58408874 87.91863784 -152.76953125 83.92578125 C-144.00072552 78.77757856 -135.25392269 73.59238727 -126.5078125 68.40576172 C-120.17385497 64.64989014 -113.83657429 60.89975077 -107.49414062 57.15820312 C-99.00654857 52.15082803 -90.54024825 47.11029414 -82.09594727 42.03027344 C-74.40415474 37.40782006 -66.68242308 32.83627098 -58.959198 28.26663208 C-52.31470323 24.33473229 -45.67604043 20.39394701 -39.05957031 16.41503906 C-37.43007906 15.4355459 -35.79925415 14.45826739 -34.16699219 13.48339844 C-30.24605398 11.14057698 -26.34831369 8.76945897 -22.48046875 6.33984375 C-21.71814941 5.86981934 -20.95583008 5.39979492 -20.17041016 4.91552734 C-18.74970449 4.03953521 -17.33704288 3.15028164 -15.93505859 2.24462891 C-10.64362404 -0.98374823 -6.11983662 -1.93885089 0 0 Z " fill="#FDF100" transform="translate(780.20703125,332.69921875)"/>
</svg>
